<!--?xml version="1.0" encoding="utf-8"?-->
<!-- Generator: Adobe Illustrator 19.1.1, SVG Export Plug-In . SVG Version: 6.00 Build 0)  -->
<svg version="1.1" id="_x31_0" xmlns="http://www.w3.org/2000/svg" xmlns:xlink="http://www.w3.org/1999/xlink" x="0px" y="0px" viewBox="0 0 512 512" style="enable-background:new 0 0 512 512;" xml:space="preserve">
<style type="text/css">
	.st0{fill:#374149;}
</style>
<g>
	<path class="st0" d="M83.438,421.78c44.344,33.218,106.371,51.511,174.59,51.511c63.582,0,124.668-19.527,171.981-54.972
		C482.898,378.698,512,321.05,512,255.971c0-28.766-5.473-56.266-15.73-81.328c-1.961-4.89-4.031-9.719-6.344-14.402
		c-0.015,0.062-0.039,0.117-0.054,0.176c-0.035-0.07-0.066-0.145-0.102-0.215c-3.992,16.094-14.625,29.222-29.75,36.504
		c-2.378,1.118-4.843,2.086-7.37,2.848c6.226,17.386,9.43,36.359,9.43,56.418c0,48.957-22,92.422-61.996,122.375
		c-38.766,29.046-89.192,45.019-142.055,45.019c-57.5,0-108.894-14.738-144.664-41.554c-39.707-29.75-63.438-76.797-63.438-125.84
		c0-27.137,8.137-53.214,23.527-76.621c-5.726-8.75-8.664-19.234-8.402-30.543c0.41-17.89,12.114-34.77,34.856-50.426
		c3.258-2.215,6.742-4.398,10.449-6.551l-0.09-0.042c0.058-0.031,0.106-0.066,0.16-0.102L98.324,85.99
		c-3.965,2.672-7.871,5.462-11.746,8.367C30.75,136.178,0,193.565,0,255.971C0,320.67,31.191,382.635,83.438,421.78z" style="fill: rgb(210, 116, 58);"></path>
	<path class="st0" d="M150.367,98.178c-3.469,1.351-7.313,3.054-11.367,4.961c-15.008,7.195-49.984,26.051-50.453,46.226
		c-0.09,3.29,0.293,6.371,1.054,9.25c1.382,5.109,4.027,9.546,7.93,13.07c6.523,5.902,16.035,8.926,27.813,8.926
		c3.023,0,6.226-0.176,9.546-0.586c3.11-0.382,7.078-0.91,11.422-1.469c1.382-0.206,2.969-0.41,4.609-0.617l2.211-0.23l1.734-0.054
		c-39.562,20.402-42.137,37.874-36.953,49.125c6.726,14.714,20.351,17.973,32.629,17.973c5.961,0,11.598-0.762,16.004-1.352
		c0.941-0.117,2-0.262,3.054-0.41l0.77-0.054l0.05,0.008c-0.738,3.762-2.882,10.922-8.898,23.746
		c-3.172,6.726-2.438,15.449,1.883,22.202c3.082,4.829,7.61,8.133,13.098,9.734c1.805,0.602,3.738,1.039,5.778,1.332
		c0.011,0.031,0.062,0.031,0.066,0.063c0.175,3.027-0.234,8.078-0.528,11.691c-1.148,13.566-2.675,32.183,12.391,36.942
		c2.117,0.824,4.258,1.234,6.434,1.234c2.699,0,5.402-0.618,8.046-1.879c7.754-3.699,13.422-12.043,18.883-20.118
		c1.316-1.937,2.949-4.32,4.492-6.39c0.969-1.164,1.961-2.25,2.961-3.074c0.012,0.004,0.023,0,0.035,0.008
		c4.375,2.969,9.106,4.465,13.832,4.465c3.406,0,6.786-0.762,10.043-2.32c6.316-3.024,11.191-8.75,12.718-14.977
		c3.055-12.481,5.695-19.355,7.43-23.027c0.153-0.328,0.321-0.641,0.477-0.93c0.043-0.043,0.054-0.094,0.098-0.137
		c0.934,0.934,1.898,1.926,2.715,2.832c7.281,7.722,19.586,20.73,35.183,20.73c4.141,0,8.516-0.938,13.098-3.114
		c5.344-2.671,9.161-7.222,11.012-13.214c3.406-10.867-0.207-25.902-5.344-39.5c-0.617-1.645-1.242-3.153-1.863-4.734
		c-0.488-1.352-1.023-2.734-1.445-4.051c2.14,2.227,4.195,4.391,5.863,6.141c2.996,3.172,5.754,6.051,7.957,8.313
		c10.836,11.191,22.262,17.004,32.774,17.004c3.996,0,7.871-0.852,11.515-2.582c4.141-2,7.871-5.082,11.012-9.164
		c16.27-21.172-15.625-78.09-15.946-78.676c-3.672-6.492-8.695-14.246-13.539-21.762c-2.175-3.347-4.73-7.312-7.168-11.218
		c-0.304-0.512-0.582-1.024-0.878-1.535c-0.18-0.383-0.406-0.73-0.527-1.156c4.191,2.625,9.25,5.828,15.121,9.562l17.301,11.011
		c15.27,9.664,27.633,12.57,37,12.57c3.614,0,6.785-0.438,9.488-1.054c2.79-0.676,5.11-1.558,6.958-2.438
		c9.398-4.523,15.832-13.098,17.621-23.586c0.266-1.524,0.414-3.051,0.5-4.61c-22.047-37.363-58.359-67.938-103.102-86.95
		c-14.785-6.312-30.465-11.363-46.816-15.004c0.046,0.059,0.105,0.118,0.152,0.172c-0.094-0.019-0.184-0.046-0.274-0.066
		c0.91,1.058,1.848,2.114,2.879,3.203c2.023,2.262,4.226,4.695,6.722,7.191c2.41,2.528,5.023,5.141,7.786,7.786
		c5.492,5.316,11.57,10.809,17.797,16.121c12.422,10.691,25.43,20.703,35.386,27.961c4.965,3.641,9.164,6.606,12.098,8.661
		c2.969,2.058,4.672,3.23,4.672,3.23c1.32,0.914,1.645,2.734,0.734,4.054c-0.558,0.82-1.469,1.262-2.41,1.262
		c-0.527,0-1.086-0.176-1.586-0.496c0,0-1.73-1.117-4.754-3.117c-2.996-2.024-7.312-4.934-12.394-8.485
		c-10.191-7.11-23.554-16.946-36.386-27.519c-6.434-5.286-12.746-10.719-18.446-16.062c-2.874-2.645-5.637-5.258-8.164-7.813
		c-2.582-2.465-4.902-4.965-7.074-7.254c-2.203-2.231-4.082-4.434-5.789-6.371c-0.996-1.09-1.789-2.086-2.582-3.027
		c-0.059-0.086-0.133-0.184-0.207-0.282l-0.176-0.274l-0.008,0.023c-0.008-0.007-0.015-0.015-0.023-0.027v0.059
		c-0.027-0.028-0.086-0.059-0.118-0.118c-1.23,3.145-2.492,6.226-3.758,9.43c-4.226,10.629-8.515,21.672-12.863,32.918
		c-1.113,2.91-2.23,5.847-3.375,8.785c0.559,1.496,0.496,3.082-0.266,4.434c0.145,0.527,0.294,1.058,0.469,1.672
		c0.234,0.882,0.5,1.879,0.793,2.965c0.352,1.062,0.825,2.203,1.294,3.438s0.969,2.554,1.496,3.938
		c0.266,0.675,0.531,1.378,0.793,2.113c0.355,0.707,0.707,1.442,1.058,2.172c1.469,2.965,2.79,6.258,4.672,9.547
		c1.879,3.316,3.641,6.902,5.902,10.426c2.203,3.523,4.375,7.254,6.898,10.867c2.41,3.641,4.906,7.34,7.578,10.953
		c2.586,3.641,5.285,7.223,7.988,10.719c2.645,3.523,5.406,6.871,8.016,10.16c5.316,6.55,10.43,12.539,14.863,17.594
		c8.957,10.129,15.21,16.504,15.21,16.504c1.118,1.176,1.118,2.992-0.058,4.141c-0.558,0.554-1.293,0.82-1.996,0.82
		c-0.734,0-1.5-0.266-2.054-0.82c0,0-6.61-6.317-15.95-16.211c-4.699-4.965-10.043-10.836-15.652-17.27
		c-2.762-3.258-5.699-6.578-8.489-10.074c-2.847-3.465-5.726-6.988-8.484-10.66c-2.852-3.55-5.523-7.281-8.137-10.953
		c-2.703-3.582-5.082-7.371-7.488-10.954c-2.438-3.527-4.406-7.254-6.493-10.633c-2.086-3.378-3.64-6.87-5.312-9.926
		c-0.383-0.793-0.766-1.558-1.149-2.293c-0.351-0.789-0.672-1.523-0.969-2.289c-0.234-0.559-0.469-1.086-0.675-1.614l-0.34-1.004
		l-0.039-0.203l-0.016,0.043l-0.015-0.043l-0.058,0.122c-0.028-0.062-0.059-0.122-0.059-0.18c-0.234,0.618-0.469,1.207-0.703,1.82
		c-7.374,19.473-14.832,39.676-21.937,59.298c0.703,0.617,1.32,1.32,1.671,2.262c0.032,0.117,0.059,0.203,0.086,0.32l0.148,0.473
		c0,0,0.41,1.32,1.118,3.61c0.382,1.144,0.734,2.586,1.379,4.171c0.648,1.586,1.293,3.375,2.113,5.344
		c0.883,1.938,1.852,4.023,2.879,6.258c1.144,2.172,2.351,4.493,3.582,6.871c1.383,2.321,2.703,4.786,4.203,7.223
		c1.524,2.41,2.965,4.906,4.61,7.312c3.172,4.875,6.492,9.664,9.75,14.07c3.231,4.406,6.402,8.457,9.133,11.863
		c2.731,3.438,5.082,6.254,6.754,8.191c1.703,2.028,2.672,3.145,2.672,3.145c1.058,1.234,0.91,3.082-0.321,4.114
		c-0.558,0.469-1.234,0.703-1.878,0.703c-0.383,0-0.766-0.09-1.118-0.234c-0.09-0.031-0.207-0.118-0.293-0.149
		c-0.234-0.145-0.5-0.293-0.707-0.5l-0.117-0.117c0,0-0.996-1.055-2.758-2.875c-1.82-1.852-4.378-4.582-7.374-7.875
		c-2.993-3.316-6.461-7.222-10.043-11.539c-3.582-4.289-7.313-8.957-10.894-13.773c-1.852-2.379-3.523-4.875-5.258-7.286
		c-1.703-2.434-3.258-4.902-4.817-7.254c-1.496-2.438-2.906-4.817-4.258-7.047c-1.262-2.32-2.438-4.492-3.524-6.519
		c-0.691-1.438-1.277-2.73-1.847-4c-0.125-0.356-0.262-0.668-0.383-1.055v0.004c-0.031,0.058-0.031,0.086-0.062,0.118
		c-0.027-0.031-0.058-0.118-0.086-0.176c-5.051,14.125-9.84,27.75-14.156,40.293c-5.434,15.801-9.836,29.016-12.891,38.266
		l-4.73,14.566c-0.234,0.734-0.734,1.293-1.41,1.614c-0.378,0.179-0.789,0.266-1.202,0.266c-0.262,0-0.528-0.027-0.794-0.118
		c-1.351-0.441-2.144-1.938-1.73-3.32l4.375-14.742c2.848-9.336,6.93-22.699,11.981-38.644c2.996-9.458,6.316-19.649,9.722-30.074
		c1.015-2.992,1.965-5.922,3.019-8.954c0.082-0.195,0.133-0.398,0.223-0.594l-0.024,0.012c0.004-0.012,0.008-0.027,0.012-0.039
		l-0.117,0.058c0.027-0.058,0.027-0.117,0.058-0.175c-1.207,0.586-2.352,1.175-3.73,1.82c-2.114,0.879-4.406,1.851-6.844,2.879
		c-2.465,0.878-5.05,1.82-7.722,2.789c-2.703,0.851-5.462,1.789-8.313,2.613c-2.875,0.794-5.754,1.703-8.664,2.379
		c-5.813,1.496-11.656,2.789-17.149,3.875c-5.492,1.09-10.633,1.969-15.038,2.645c-4.434,0.706-8.102,1.202-10.688,1.527
		c-2.527,0.293-3.965,0.469-3.965,0.469l-0.176,0.031c-0.148,0.027-0.266,0.027-0.382,0.027c-1.438,0-2.703-1.086-2.848-2.554
		c-0.058-0.379-0.031-0.734,0.059-1.086c0,0,0.027-0.027,0.027-0.058c0.297-1.027,1.144-1.879,2.262-2.086
		c0,0,1.469-0.262,4.054-0.762c2.524-0.473,6.11-1.206,10.394-2.144c4.29-0.938,9.282-2.114,14.566-3.493
		c5.317-1.41,10.926-3.027,16.446-4.82c2.789-0.851,5.492-1.879,8.195-2.789c2.672-0.969,5.258-2.027,7.782-2.996
		c2.469-1.086,4.847-2.114,7.11-3.082c2.202-1.086,4.258-2.114,6.164-3.082c1.851-1,3.496-2,4.992-2.82
		c1.531-0.824,2.676-1.703,3.703-2.351c1.996-1.352,3.141-2.145,3.141-2.145l0.382-0.262c0.5-0.324,1.058-0.5,1.586-0.649
		c6.696-20.027,13.746-40.675,20.703-60.554c0.118-0.266,0.207-0.527,0.297-0.793c-0.531,0.266-1,0.527-1.527,0.82
		c-0.707,0.383-1.441,0.766-2.203,1.176c-0.766,0.324-1.527,0.676-2.32,1.027c-3.23,1.351-6.637,3.086-10.367,4.406
		c-3.758,1.32-7.606,2.996-11.746,4.199c-4.113,1.262-8.343,2.703-12.718,3.816c-4.344,1.207-8.75,2.41-13.215,3.41
		c-4.434,1.114-8.898,2.054-13.273,2.965c-4.406,0.969-8.754,1.703-12.922,2.496c-8.43,1.496-16.27,2.703-23.023,3.614
		c-13.512,1.82-22.614,2.582-22.614,2.582h-0.297c-1.496,0-2.758-1.113-2.875-2.64c-0.148-1.559,1.028-2.965,2.582-3.145
		c0,0,8.871-1.054,22.203-3.32c6.637-1.114,14.359-2.551,22.582-4.313c4.114-0.942,8.371-1.793,12.661-2.879
		c4.285-1.027,8.633-2.117,12.949-3.347c4.321-1.118,8.606-2.438,12.778-3.73c4.226-1.234,8.25-2.79,12.187-4.141
		c3.965-1.293,7.574-2.996,11.129-4.379c3.555-1.406,6.637-3.11,9.633-4.492c0.734-0.351,1.469-0.703,2.172-1.054
		c0.676-0.383,1.325-0.766,1.969-1.149c1.293-0.734,2.496-1.438,3.641-2.114c1.117-0.644,2.203-1.262,3.172-1.847
		c0.914-0.676,1.734-1.266,2.469-1.824c0.527-0.379,1-0.703,1.438-1.028c0.234-1.293,0.91-2.465,1.969-3.289
		c0.82-2.32,1.644-4.641,2.468-6.961c4.375-12.215,8.719-24.286,12.977-35.828c1.031-2.758,2.027-5.461,3.027-8.164
		c0.266-0.703,0.528-1.438,0.794-2.145c-0.118,0.031-0.207,0.058-0.325,0.058c-6.554-0.258-45.102-2.664-91.746,5.051
		c-23.668,4.675-45.813,12.469-66.059,22.582c-3.886,1.91-7.816,3.758-11.578,5.852c0.035,0.015,0.078,0.031,0.117,0.046
		c-0.058,0.035-0.125,0.062-0.187,0.098c7.344,3.465,16.183,5.902,26.199,7.047l20.41,2.32c5.754,0.645,10.863,1.234,15.242,1.762
		c0.531,0.082,1.012,0.16,1.516,0.242l1.023,0.274c-4.766,1.684-10.137,3.477-15.465,5.211
		C166.106,92.538,157.328,95.417,150.367,98.178z" style="fill: rgb(210, 116, 58);"></path>
</g>
</svg>
