<?xml version="1.0" standalone="no"?>
<!DOCTYPE svg PUBLIC "-//W3C//DTD SVG 20010904//EN"
 "http://www.w3.org/TR/2001/REC-SVG-20010904/DTD/svg10.dtd">
<svg version="1.0" xmlns="http://www.w3.org/2000/svg"
 width="512.000000pt" height="512.000000pt" viewBox="0 0 512.000000 512.000000"
 preserveAspectRatio="xMidYMid meet">

<g transform="translate(0.000000,512.000000) scale(0.100000,-0.100000)"
fill="#000000" stroke="none">
<path d="M58 5104 c-52 -28 -58 -55 -58 -259 0 -205 6 -232 60 -260 16 -8 54
-15 85 -15 l55 0 0 -870 0 -870 -65 0 c-57 0 -68 -3 -97 -29 l-33 -29 -3 -199
c-2 -145 1 -204 10 -222 22 -41 61 -62 126 -68 l62 -6 0 -863 0 -864 -55 0
c-31 0 -69 -7 -85 -15 -54 -28 -60 -55 -60 -260 0 -278 -3 -275 275 -275 205
0 232 6 260 60 8 16 15 54 15 85 l0 55 864 0 863 0 7 -62 c6 -67 27 -105 67
-125 16 -9 82 -13 209 -13 127 0 193 4 209 13 40 20 61 58 67 124 l7 63 863 0
864 0 0 -55 c0 -31 7 -69 15 -85 28 -54 55 -60 260 -60 278 0 275 -3 275 275
0 205 -6 232 -60 260 -16 8 -54 15 -85 15 l-55 0 0 864 0 863 62 6 c65 6 104
27 126 68 9 18 12 77 10 222 l-3 199 -33 29 c-29 26 -40 29 -97 29 l-65 0 0
870 0 870 55 0 c31 0 69 7 85 15 54 28 60 55 60 260 0 278 3 275 -275 275
-205 0 -232 -6 -260 -60 -8 -16 -15 -54 -15 -85 l0 -55 -864 0 -863 0 -7 63
c-6 66 -27 104 -67 124 -16 9 -82 13 -209 13 -127 0 -193 -4 -209 -13 -40 -20
-61 -58 -67 -124 l-7 -63 -863 0 -864 0 0 55 c0 67 -20 109 -60 130 -42 22
-392 21 -432 -1z m342 -259 l0 -125 -125 0 -125 0 0 125 0 125 125 0 125 0 0
-125z m2280 0 l0 -125 -120 0 -120 0 0 125 0 125 120 0 120 0 0 -125z m2290 0
l0 -125 -125 0 -125 0 0 125 0 125 125 0 125 0 0 -125z m-2686 -137 c6 -67 27
-105 67 -125 16 -9 82 -13 209 -13 127 0 193 4 209 13 40 20 61 58 67 125 l7
62 863 0 864 0 0 -55 c0 -102 43 -145 145 -145 l55 0 0 -870 0 -870 -65 0
c-57 0 -68 -3 -97 -29 l-33 -29 -3 -199 c-2 -145 1 -204 10 -222 22 -41 61
-62 126 -68 l62 -6 0 -863 0 -864 -55 0 c-102 0 -145 -43 -145 -145 l0 -55
-864 0 -863 0 -7 63 c-6 66 -27 104 -67 124 -16 9 -82 13 -209 13 -127 0 -193
-4 -209 -13 -40 -20 -61 -58 -67 -124 l-7 -63 -863 0 -864 0 0 55 c0 102 -43
145 -145 145 l-55 0 0 864 0 863 62 6 c65 6 104 27 126 68 9 18 12 77 10 222
l-3 199 -33 29 c-29 26 -40 29 -97 29 l-65 0 0 870 0 870 55 0 c102 0 145 43
145 145 l0 55 864 0 863 0 7 -62z m-1884 -2153 l0 -125 -125 0 -125 0 0 125 0
125 125 0 125 0 0 -125z m4570 0 l0 -125 -125 0 -125 0 0 125 0 125 125 0 125
0 0 -125z m-4570 -2280 l0 -125 -125 0 -125 0 0 125 0 125 125 0 125 0 0 -125z
m2280 0 l0 -125 -120 0 -120 0 0 125 0 125 120 0 120 0 0 -125z m2290 0 l0
-125 -125 0 -125 0 0 125 0 125 125 0 125 0 0 -125z"/>
<path d="M1709 4256 c-69 -19 -141 -62 -192 -114 -33 -34 -153 -233 -433 -717
-213 -368 -396 -692 -408 -720 -28 -70 -28 -220 0 -290 12 -27 195 -351 408
-720 408 -705 428 -736 528 -790 102 -56 88 -55 948 -55 860 0 846 -1 948 55
92 50 130 102 331 450 206 356 214 376 165 414 -62 49 -86 25 -233 -232 l-113
-197 -1098 0 -1098 0 -317 550 c-175 303 -324 570 -332 593 -21 59 -12 140 23
209 16 30 160 281 319 556 l290 502 273 0 273 0 24 25 c32 31 33 74 2 103 -23
21 -31 22 -250 22 -125 0 -227 3 -227 6 0 21 68 119 103 149 77 67 56 65 917
65 861 0 840 2 917 -65 35 -30 103 -128 103 -149 0 -3 -290 -6 -645 -6 l-646
0 -24 -25 c-30 -29 -32 -64 -6 -96 l19 -24 699 -3 698 -2 307 -533 c168 -292
312 -543 319 -557 7 -14 13 -57 13 -100 0 -86 2 -82 -148 -340 -106 -183 -115
-214 -70 -249 34 -27 57 -26 88 1 29 26 230 368 260 443 28 70 28 220 0 290
-12 28 -195 352 -408 720 -408 705 -428 736 -528 790 -102 56 -87 55 -953 54
-614 -1 -811 -4 -846 -13z m1841 -3103 c-36 -62 -106 -121 -163 -138 -76 -23
-1578 -23 -1654 0 -57 17 -127 76 -163 138 l-22 37 1012 0 1012 0 -22 -37z"/>
<path d="M2138 3530 c-52 -16 -98 -52 -124 -96 -23 -39 -26 -53 -22 -114 3
-58 8 -75 34 -107 17 -21 50 -48 74 -60 44 -23 46 -23 518 -23 521 0 501 -2
570 63 39 37 65 115 56 167 -10 59 -50 117 -102 147 l-47 28 -465 2 c-256 1
-477 -2 -492 -7z m922 -150 c34 -18 44 -48 25 -76 l-15 -24 -453 0 c-339 0
-456 3 -465 12 -20 20 -14 65 10 82 20 14 79 16 451 16 273 0 435 -4 447 -10z"/>
<path d="M1222 2887 c-22 -23 -22 -29 -22 -326 l0 -302 25 -24 c23 -24 30 -25
150 -25 112 0 127 2 145 20 30 30 27 83 -6 109 -21 17 -41 21 -95 21 l-69 0 0
249 c0 236 -1 250 -21 275 -27 34 -77 36 -107 3z"/>
<path d="M1867 2886 c-115 -48 -184 -128 -213 -249 -14 -57 -15 -79 -6 -129
23 -122 93 -216 200 -266 49 -23 70 -27 152 -27 89 0 99 2 158 34 74 40 124
94 161 171 21 46 26 69 26 140 0 105 -29 175 -102 248 -70 69 -129 95 -233 99
-73 3 -93 0 -143 -21z m243 -160 c48 -31 90 -109 90 -167 0 -54 -45 -136 -93
-167 -34 -23 -51 -27 -112 -27 -62 0 -77 4 -112 28 -130 90 -112 287 32 353
49 23 145 13 195 -20z"/>
<path d="M2693 2896 c-89 -29 -163 -95 -210 -186 -25 -49 -28 -65 -28 -150 0
-85 3 -101 29 -153 35 -68 108 -140 174 -170 38 -18 65 -22 142 -22 108 0 151
16 216 82 92 91 130 288 64 323 -10 6 -68 10 -129 10 -101 0 -112 -2 -131 -22
-53 -57 0 -128 96 -128 40 0 42 -11 12 -57 -55 -79 -186 -84 -267 -10 -76 70
-80 208 -8 286 54 59 164 78 237 41 75 -38 140 -15 140 50 0 63 -90 112 -215
117 -49 2 -96 -2 -122 -11z"/>
<path d="M3463 2896 c-96 -31 -188 -119 -222 -212 -28 -73 -28 -175 0 -249 27
-73 104 -156 177 -192 50 -25 68 -28 152 -28 76 0 104 4 142 22 66 30 139 102
174 170 26 52 29 68 29 153 0 85 -3 101 -29 153 -35 68 -109 140 -174 169 -59
27 -188 34 -249 14z m185 -151 c75 -32 122 -103 122 -185 0 -115 -89 -200
-207 -200 -59 0 -114 30 -157 83 -29 36 -31 45 -31 117 0 72 2 81 31 117 62
77 156 103 242 68z"/>
<path d="M2125 1968 c-86 -30 -135 -102 -135 -195 0 -72 28 -125 88 -168 l44
-30 476 -3 c538 -3 533 -4 596 70 96 111 48 280 -93 327 -45 15 -933 14 -976
-1z m940 -144 c27 -11 38 -53 20 -80 l-15 -24 -446 0 c-288 0 -452 4 -465 10
-25 14 -26 75 -1 89 19 11 878 16 907 5z"/>
</g>
</svg>
