<?xml version="1.0" standalone="no"?>
<!DOCTYPE svg PUBLIC "-//W3C//DTD SVG 20010904//EN"
 "http://www.w3.org/TR/2001/REC-SVG-20010904/DTD/svg10.dtd">
<svg version="1.0" xmlns="http://www.w3.org/2000/svg"
 width="192.000000pt" height="192.000000pt" viewBox="0 0 192.000000 192.000000"
 preserveAspectRatio="xMidYMid meet">
<metadata>
Created by potrace 1.14, written by Peter Selinger 2001-2017
</metadata>
<g transform="translate(0.000000,192.000000) scale(0.100000,-0.100000)"
fill="#000000" stroke="none">
<path d="M759 1915 c-2 -2 -24 -6 -49 -10 -114 -17 -272 -88 -374 -170 -156
-124 -258 -282 -313 -485 -14 -53 -18 -107 -18 -290 0 -203 2 -233 22 -307 58
-212 184 -388 364 -509 92 -63 226 -115 339 -132 69 -11 435 -10 485 2 337 77
589 313 677 636 21 77 23 106 23 310 0 245 -11 314 -71 447 -64 142 -190 288
-316 370 -98 63 -211 108 -316 127 -68 12 -443 22 -453 11z"/>
</g>
</svg>
